PathFileType	4	(X/Y/Z)	C:\Users\°ÂÌØÂü\Desktop\20201223\Trimmed_Trimmed_bx_y_10_501.trc
DataRate	CameraRate	NumFrames	NumMarkers	Units	OrigDataRate	OrigDataStartFrame	OrigNumFrames
50.00	50.00	      8	43	mm	50.00	1	      1437
Frame#	Time	Top.Head			R.Acromium			L.Acromium			Sternum			R.ASIS			L.ASIS			V.Sacral			R.Thigh.Upper			R.Thigh.Front			R.Thigh.Rear			R.Knee.Lat			R.Knee.Med			R.Shank.Upper			R.Shank.Front			R.Shank.Rear			R.Ankle.Lat			R.Midfoot.Lat			R.Toe.Lat			R.Toe.Tip			R.Toe.Med			R.Ankle.Med			R.Midfoot.Sup			R.Heel			L.Thigh.Upper			L.Thigh.Front			L.Thigh.Rear			L.Knee.Lat			L.Knee.Med			L.Shank.Upper			L.Shank.Front			L.Shank.Rear			L.Ankle.Lat			L.Midfoot.Lat			L.Toe.Lat			L.Toe.Tip			L.Toe.Med			L.Ankle.Med			L.Midfoot.Sup			L.Heel			origin1 front left			origin2 front right			origin 3 back right			origin 4 back leftt			
		X1	Y1	Z1	X2	Y2	Z2	X3	Y3	Z3	X4	Y4	Z4	X5	Y5	Z5	X6	Y6	Z6	X7	Y7	Z7	X8	Y8	Z8	X9	Y9	Z9	X10	Y10	Z10	X11	Y11	Z11	X12	Y12	Z12	X13	Y13	Z13	X14	Y14	Z14	X15	Y15	Z15	X16	Y16	Z16	X17	Y17	Z17	X18	Y18	Z18	X19	Y19	Z19	X20	Y20	Z20	X21	Y21	Z21	X22	Y22	Z22	X23	Y23	Z23	X24	Y24	Z24	X25	Y25	Z25	X26	Y26	Z26	X27	Y27	Z27	X28	Y28	Z28	X29	Y29	Z29	X30	Y30	Z30	X31	Y31	Z31	X32	Y32	Z32	X33	Y33	Z33	X34	Y34	Z34	X35	Y35	Z35	X36	Y36	Z36	X37	Y37	Z37	X38	Y38	Z38	X39	Y39	Z39	X40	Y40	Z40	X41	Y41	Z41	X42	Y42	Z42	X43	Y43	Z43	

1	0.000	-694.59100	266.60529	1839.57251	-651.74341	58.34394	1527.84143	-657.52039	453.09525	1509.11780	-544.34247	263.82959	1407.93103	-531.08490	143.61282	1049.10999	-531.68890	389.61530	1055.28772	-727.94385	241.53979	1045.15759	-565.24530	92.87223	889.68701	-522.95709	148.10342	836.98486	-611.18524	88.77623	748.46375	-635.26971	124.87208	605.26990	-624.70325	235.02896	563.74915	-673.58844	124.52854	541.09985	-590.97949	177.25687	546.57617	-714.87195	127.42584	475.38141	-685.08136	148.71785	215.35310	-617.69159	79.84435	168.89395	-573.29803	51.43636	163.62984	-493.54007	89.68861	161.91666	-531.11523	143.90109	164.44229	-630.38733	221.33586	219.39485	-590.51031	191.44647	169.15849	-715.10602	217.32533	170.60986	-562.19702	434.62766	882.80200	-513.48169	373.10590	840.40295	-603.94940	434.68155	751.84076	-638.05475	410.86160	626.55615	-604.95227	307.01190	579.54242	-647.04480	406.83444	562.74585	-595.49884	365.30682	540.48456	-700.53760	411.08673	512.39343	-678.49084	411.48148	213.66429	-585.27863	467.34842	165.61487	-546.60864	479.07050	159.74916	-487.41562	428.99466	168.23659	-524.49658	386.48965	177.71710	-639.88354	322.62085	207.10655	-591.90240	346.02271	167.92056	-731.12073	340.45502	164.55449	-443.35944	448.85141	146.78673	-449.94815	74.95952	145.54755	-806.30829	82.80533	142.51379	-799.18433	457.53748	145.15076	
2	0.020	-693.87457	266.30261	1839.62769	-651.24091	57.96275	1527.84180	-657.37689	452.93579	1509.25195	-544.18640	263.65878	1407.86194	-530.99146	143.26048	1048.99866	-531.48157	389.52997	1055.26709	-727.62598	241.21019	1045.26953	-565.11865	92.56337	889.55774	-522.91663	147.98476	836.90106	-611.10999	88.55268	748.33380	-635.25397	124.74348	605.13196	-624.87500	234.90157	564.00171	-673.64697	124.31579	541.12317	-590.99530	177.15594	546.50232	-714.62238	127.20712	475.42493	-685.08960	148.61122	215.33437	-617.68964	79.97697	168.84793	-573.29059	51.49023	163.49644	-493.58780	89.62881	161.78563	-531.09045	143.98932	164.45082	-630.66766	221.24223	219.26767	-590.51544	191.24471	169.22044	-715.04047	217.42281	170.51636	-562.12482	434.51648	882.95911	-513.42041	373.06525	840.34155	-603.91107	434.62347	751.86725	-637.90076	410.83203	626.65131	-604.98663	306.98663	579.45032	-647.01031	406.79773	562.83624	-595.40900	365.22278	540.47003	-700.52649	410.97208	512.36151	-678.47583	411.53278	213.60509	-585.32983	467.17969	165.41888	-546.53943	479.05655	159.72554	-487.47418	429.07217	168.13568	-524.54236	386.54526	177.68614	-639.97900	322.79840	206.90494	-591.93976	346.04886	167.89087	-731.14233	340.37140	164.66942	-443.38416	448.91562	146.85629	-450.03918	75.15157	145.35202	-806.30554	82.79954	142.49550	-799.18646	457.65897	144.99921	
3	0.040	-693.18408	266.00574	1839.69165	-650.75299	57.59935	1527.83179	-657.16577	452.72269	1509.35522	-543.93109	263.47116	1407.80725	-530.88568	142.98573	1048.96094	-531.28790	389.40787	1055.28723	-727.31641	240.92142	1045.37610	-564.93628	92.25908	889.48260	-522.88684	147.87328	836.83984	-611.02856	88.26617	748.29468	-635.24243	124.63278	605.02850	-625.01031	234.79918	564.21411	-673.69232	124.09983	541.15778	-591.00134	177.03235	546.42059	-714.46466	126.99696	475.41656	-685.08423	148.51949	215.33958	-617.68390	80.04893	168.78156	-573.29156	51.53252	163.36719	-493.61172	89.58598	161.71286	-531.07489	144.03445	164.45332	-630.91876	221.10951	219.14699	-590.54651	191.12061	169.22705	-714.99170	217.46635	170.48422	-562.07617	434.39020	883.06836	-513.39410	372.99911	840.27039	-603.87415	434.52826	751.86627	-637.81451	410.77094	626.70892	-605.02789	306.95523	579.37170	-646.99554	406.78235	562.91522	-595.32776	365.15436	540.44830	-700.52985	410.87369	512.33307	-678.46698	411.56601	213.57100	-585.37598	467.08481	165.31354	-546.49670	479.04779	159.70743	-487.49988	429.15027	168.08051	-524.56927	386.58084	177.66196	-640.20557	323.08420	206.65643	-592.04828	346.13586	167.78978	-731.15387	340.32617	164.72784	-443.39764	448.93521	146.88789	-450.10193	75.27848	145.21590	-806.31671	82.79907	142.48398	-799.21436	457.66077	144.96286	
4	0.060	-692.53528	265.70822	1839.78027	-650.28204	57.25517	1527.82275	-656.84070	452.43393	1509.42102	-543.55652	263.29425	1407.77783	-530.72534	142.81812	1049.05981	-531.12390	389.24677	1055.35437	-727.07208	240.68100	1045.46985	-564.73181	92.00816	889.44629	-522.87115	147.75804	836.80469	-610.95239	87.95042	748.33734	-635.22900	124.54041	604.98212	-625.10504	234.73361	564.37183	-673.71649	123.89869	541.18250	-591.01160	176.88161	546.32080	-714.41437	126.81333	475.37955	-685.06958	148.46652	215.36183	-617.67828	80.04858	168.72081	-573.30188	51.55934	163.25497	-493.60785	89.55684	161.72569	-531.07263	144.03288	164.44763	-631.13007	220.94803	219.03357	-590.61096	191.08864	169.15765	-714.95764	217.44838	170.52272	-562.06628	434.23911	883.11633	-513.40778	372.91003	840.18201	-603.85248	434.39822	751.83612	-637.82306	410.65219	626.72479	-605.07532	306.91086	579.31567	-646.99359	406.77240	562.96899	-595.26581	365.09644	540.42511	-700.54980	410.78992	512.31750	-678.46808	411.57855	213.57503	-585.41504	467.08054	165.30931	-546.48730	479.04666	159.69754	-487.49121	429.22330	168.07767	-524.56866	386.58032	177.65837	-640.53247	323.44086	206.39256	-592.20978	346.27737	167.62450	-731.15356	340.33224	164.71552	-443.39828	448.90533	146.87907	-450.12265	75.31145	145.16203	-806.34009	82.79246	142.48613	-799.25861	457.56821	145.01753	
5	0.080	-691.91913	265.40173	1839.89648	-649.81451	56.92469	1527.83984	-656.42010	452.10822	1509.46899	-543.12286	263.16916	1407.76367	-530.47430	142.73592	1049.30005	-530.99738	389.05963	1055.43298	-726.96039	240.44484	1045.54028	-564.57446	91.84998	889.39764	-522.86890	147.61653	836.77399	-610.89899	87.67724	748.39856	-635.20319	124.44576	604.99280	-625.16559	234.70369	564.46594	-673.72528	123.73045	541.18646	-591.04993	176.72374	546.20239	-714.42511	126.67256	475.36237	-685.06445	148.46288	215.37909	-617.67603	80.00470	168.70197	-573.31476	51.56322	163.17944	-493.58636	89.53114	161.79765	-531.07550	144.01859	164.43622	-631.28125	220.82152	218.95578	-590.66931	191.11887	169.04366	-714.94220	217.39090	170.59398	-562.09619	434.07501	883.12134	-513.44580	372.81638	840.08917	-603.85956	434.26895	751.80890	-637.90540	410.46594	626.71606	-605.12146	306.84634	579.27722	-646.98755	406.72153	562.97638	-595.22803	365.03528	540.40668	-700.57166	410.71179	512.31384	-678.47968	411.57990	213.61626	-585.44305	467.13339	165.36131	-546.50397	479.05872	159.69815	-487.46893	429.28687	168.11497	-524.54541	386.54776	177.68126	-640.81146	323.72565	206.20195	-592.34448	346.41351	167.46455	-731.15240	340.35641	164.68668	-443.38724	448.86426	146.86559	-450.11017	75.27041	145.17120	-806.36731	82.76661	142.50247	-799.29675	457.47342	145.08223	
6	0.100	-691.30005	265.07855	1840.01257	-649.33881	56.60840	1527.88110	-655.98340	451.80966	1509.52417	-542.71625	263.09613	1407.73523	-530.17560	142.69539	1049.58350	-530.89648	388.85483	1055.47278	-726.97809	240.15369	1045.59363	-564.49054	91.75710	889.32239	-522.86719	147.43887	836.72308	-610.87024	87.47688	748.43982	-635.16602	124.32701	605.03217	-625.19000	234.69830	564.49304	-673.72534	123.58568	541.18652	-591.10663	176.58694	546.08051	-714.45154	126.57620	475.37729	-685.07288	148.49098	215.37335	-617.67462	79.95367	168.72044	-573.32141	51.53415	163.15421	-493.56390	89.50997	161.86229	-531.06476	144.02937	164.42682	-631.35699	220.78288	218.94977	-590.68542	191.16830	168.94337	-714.96631	217.31223	170.65239	-562.15051	433.92773	883.11169	-513.49677	372.72855	840.01056	-603.89319	434.17429	751.81946	-638.01324	410.22775	626.69806	-605.16382	306.76315	579.23914	-646.97076	406.59131	562.92023	-595.21259	364.96518	540.39117	-700.58301	410.63889	512.30573	-678.49750	411.57513	213.67683	-585.46289	467.19043	165.41725	-546.53278	479.08557	159.70706	-487.45190	429.33337	168.17134	-524.51947	386.51425	177.71225	-640.95844	323.86273	206.12645	-592.40607	346.49286	167.37288	-731.15881	340.36066	164.69798	-443.37036	448.84500	146.87785	-450.09473	75.21687	145.19191	-806.38776	82.73364	142.52602	-799.31970	457.41949	145.12329	
7	0.120	-690.64917	264.73145	1840.08057	-648.86127	56.30886	1527.90967	-655.60529	451.56186	1509.60107	-542.38300	263.01318	1407.66333	-529.93256	142.65247	1049.76953	-530.81238	388.63394	1055.44324	-727.06061	239.80789	1045.65637	-564.46320	91.66399	889.24829	-522.84235	147.24380	836.65558	-610.85114	87.33830	748.45923	-635.13269	124.18623	605.05780	-625.16754	234.68327	564.47577	-673.71802	123.43690	541.18286	-591.14032	176.48735	545.97015	-714.47900	126.50227	475.40579	-685.07416	148.52196	215.34001	-617.67004	79.92436	168.74168	-573.32147	51.48183	163.17549	-493.55881	89.50665	161.87088	-531.03296	144.07492	164.42195	-631.37189	220.81635	218.99776	-590.68463	191.19987	168.89473	-715.02808	217.23311	170.67368	-562.20721	433.82199	883.10608	-513.55920	372.64630	839.94849	-603.94409	434.12708	751.87335	-638.10583	409.97946	626.67944	-605.21429	306.67197	579.18250	-646.94690	406.39670	562.81897	-595.21429	364.89316	540.38239	-700.59076	410.57330	512.27271	-678.51074	411.55594	213.72333	-585.49194	467.20892	165.43433	-546.55261	479.11057	159.71353	-487.45187	429.36292	168.21786	-524.51190	386.50967	177.72336	-641.00055	323.89383	206.12007	-592.42041	346.49554	167.38551	-731.16711	340.35016	164.73679	-443.35965	448.84985	146.90196	-450.10468	75.19760	145.19160	-806.38470	82.72046	142.54539	-799.32361	457.39975	145.14407	
8	0.140	-689.97089	264.35422	1840.06848	-648.39142	56.02457	1527.89526	-655.30554	451.33813	1509.70532	-542.09076	262.82584	1407.54834	-529.80365	142.58130	1049.80164	-530.76093	388.39963	1055.35168	-727.14728	239.48022	1045.75403	-564.45740	91.52807	889.20642	-522.78784	147.06493	836.59680	-610.82983	87.24062	748.46436	-635.11438	124.04652	605.04865	-625.10486	234.60555	564.43646	-673.72845	123.26131	541.15625	-591.13245	176.42203	545.87524	-714.51166	126.41592	475.41824	-685.05389	148.53258	215.29956	-617.65991	79.92967	168.73540	-573.32550	51.43564	163.21896	-493.58041	89.52597	161.82455	-530.99902	144.12675	164.41858	-631.35547	220.86134	219.04153	-590.70148	191.20131	168.89940	-715.08862	217.18733	170.65784	-562.25024	433.76501	883.10657	-513.63580	372.56155	839.89545	-604.00964	434.11880	751.94690	-638.17291	409.76489	626.65741	-605.28455	306.57803	579.10535	-646.93152	406.21301	562.72803	-595.22406	364.83463	540.39246	-700.60779	410.51465	512.21222	-678.51105	411.52072	213.73062	-585.54260	467.18326	165.40256	-546.54828	479.10889	159.71143	-487.47314	429.39005	168.23686	-524.52295	386.53018	177.70789	-640.98700	323.88580	206.11490	-592.44934	346.41528	167.52994	-731.17566	340.34091	164.76843	-443.35620	448.86731	146.90979	-450.13577	75.19305	145.19711	-806.35162	82.72660	142.55165	-799.30286	457.40012	145.15530	
